<svg xmlns="http://www.w3.org/2000/svg" xmlns:xlink="http://www.w3.org/1999/xlink" version="1.1" id="Layer_1_1_" x="0px" y="0px" viewBox="0 0 64 64" style="enable-background:new 0 0 64 64;" xml:space="preserve" width="512px" height="512px" class=""><g><g> <g> <polygon style="fill:#FFCC01" points="18,36 18,24 11,24 11,41 47,41 47,36   " data-original="#F0BC5E" class="active-path" data-old_color="#F0BC5E"></polygon> </g> <g> <g> <path style="fill:#FFCC01" d="M23,21H11v-8h12V21z" data-original="#F0BC5E" class="active-path" data-old_color="#F0BC5E"></path> </g> </g> <g> <g> <path style="fill:#FFCC01" d="M38,21H26v-8h12V21z" data-original="#F0BC5E" class="active-path" data-old_color="#F0BC5E"></path> </g> </g> <g> <path d="M58,17h-7V1H7v16H6c-2.757,0-5,2.243-5,5v30c0,2.757,2.243,5,5,5h13v4h-4v2h34v-2h-4v-4h13c2.757,0,5-2.243,5-5V22    C63,19.243,60.757,17,58,17z M49,25h2v6h-2V25z M47,27H29v-2h18V27z M27,30.557l-5.713-2.142C21.115,28.35,21,28.184,21,28    s0.115-0.35,0.288-0.415L27,25.443V30.557z M29,29h18v2H29V29z M53,25h1c1.654,0,3,1.346,3,3s-1.346,3-3,3h-1V25z M27.818,23    l-7.232,2.712C19.638,26.067,19,26.987,19,28s0.638,1.933,1.585,2.288L27.818,33H49v10H9V11h40v12H27.818z M49,3v6H9V3H49z M6,19    h1v26h44V33h3c2.757,0,5-2.243,5-5s-2.243-5-5-5h-3v-4h7c1.654,0,3,1.346,3,3v27H3V22C3,20.346,4.346,19,6,19z M43,61H21v-4h22V61    z M58,55H6c-1.654,0-3-1.346-3-3v-1h58v1C61,53.654,59.654,55,58,55z"></path> <rect x="11" y="5" width="2" height="2"></rect> <rect x="15" y="5" width="2" height="2"></rect> <rect x="19" y="5" width="2" height="2"></rect> <rect x="11" y="23" width="7" height="2"></rect> <rect x="11" y="27" width="6" height="2"></rect> <rect x="11" y="31" width="7" height="2"></rect> <rect x="11" y="35" width="36" height="2"></rect> <rect x="45" y="39" width="2" height="2"></rect> <rect x="11" y="39" width="32" height="2"></rect> </g> </g></g> </svg>