<svg xmlns="http://www.w3.org/2000/svg" viewBox="0 0 92.88 92.5"><defs><style>.cls-1{fill:#ffcc01;}.cls-2{fill:none;stroke:#000;stroke-miterlimit:10;stroke-width:2px;}</style></defs><title>cont</title><g id="Layer_2" data-name="Layer 2"><circle class="cls-1" cx="74.21" cy="18.79" r="17.19"></circle></g><g id="Layer_3" data-name="Layer 3"><line class="cls-2" x1="82.92" y1="18.79" x2="85.82" y2="18.79"></line><line class="cls-2" x1="62.6" y1="18.79" x2="65.5" y2="18.79"></line><circle class="cls-2" cx="74.21" cy="18.79" r="17.42"></circle><path class="cls-2" d="M74.21,43.47V76.86a14.52,14.52,0,1,1-29,0v-61a14.52,14.52,0,0,0-29,0V37.67"></path><line class="cls-2" x1="16.15" y1="49.28" x2="16.15" y2="55.08"></line><line class="cls-2" x1="1.63" y1="59.44" x2="30.66" y2="59.44"></line><path class="cls-2" d="M1.63,76.86a14.52,14.52,0,1,0,29,0V50.73a5.81,5.81,0,0,0-5.81-5.81H7.44a5.81,5.81,0,0,0-5.81,5.81Z"></path><path class="cls-2" d="M22,15.89a8.71,8.71,0,1,1,17.42,0"></path><path class="cls-2" d="M68.4,75.41a8.71,8.71,0,0,1-17.42,0"></path><line class="cls-2" x1="58.24" y1="75.41" x2="61.15" y2="75.41"></line><line class="cls-2" x1="58.24" y1="69.6" x2="61.15" y2="69.6"></line><line class="cls-2" x1="58.24" y1="63.79" x2="61.15" y2="63.79"></line><line class="cls-2" x1="29.21" y1="27.5" x2="32.11" y2="27.5"></line><line class="cls-2" x1="29.21" y1="21.7" x2="32.11" y2="21.7"></line><line class="cls-2" x1="29.21" y1="15.89" x2="32.11" y2="15.89"></line><line class="cls-2" x1="68.58" y1="21.73" x2="78.08" y2="21.73"></line><path class="cls-2" d="M71.83,28V9.73s8.25-1.25,8,4.25-7.12,4.88-7.12,4.88"></path></g></svg>