<svg xmlns="http://www.w3.org/2000/svg" viewBox="0 0 92.23 86.44"><defs><style>.cls-1{fill:#ffcc01;}.cls-2{fill:none;stroke:#2b2b2b;stroke-miterlimit:10;stroke-width:2px;}</style></defs><title>seo</title><g id="Layer_3" data-name="Layer 3"><rect class="cls-1" x="7.04" y="18.66" width="78.39" height="60.97"/></g><g id="Layer_1" data-name="Layer 1"><rect class="cls-2" x="1.24" y="1.24" width="90" height="84.19"/><line class="cls-2" x1="1.24" y1="12.85" x2="91.24" y2="12.85"/><line class="cls-2" x1="5.59" y1="7.04" x2="8.49" y2="7.04"/><line class="cls-2" x1="11.4" y1="7.04" x2="14.3" y2="7.04"/><line class="cls-2" x1="17.2" y1="7.04" x2="20.11" y2="7.04"/><line class="cls-2" x1="24.46" y1="1.24" x2="24.46" y2="12.85"/><line class="cls-2" x1="28.82" y1="7.04" x2="86.88" y2="7.04"/><rect class="cls-2" x="7.04" y="18.66" width="78.39" height="60.97"/><line class="cls-2" x1="14.3" y1="27.37" x2="78.17" y2="27.37"/><line class="cls-2" x1="14.3" y1="70.91" x2="78.17" y2="70.91"/><line class="cls-2" x1="14.3" y1="49.14" x2="17.2" y2="49.14"/><line class="cls-2" x1="75.27" y1="49.14" x2="78.17" y2="49.14"/><rect class="cls-2" x="56.4" y="38.98" width="10.16" height="20.32" rx="4.35" ry="4.35"/><path class="cls-2" d="M25.91,55a4.36,4.36,0,0,0,4.36,4.35h1.45A4.36,4.36,0,0,0,36.08,55V53.49c0-1.45-2.91-2.9-2.91-2.9l-4.35-2.9s-2.91-1.45-2.91-2.91V43.33A4.36,4.36,0,0,1,30.27,39h1.45a4.36,4.36,0,0,1,4.36,4.35"/><path class="cls-2" d="M52,59.3H43.33a1.45,1.45,0,0,1-1.45-1.45V40.43A1.45,1.45,0,0,1,43.33,39H52"/><line class="cls-2" x1="41.88" y1="49.14" x2="49.14" y2="49.14"/></g></svg>