<svg xmlns="http://www.w3.org/2000/svg" viewBox="0 0 92.18 86.56"><defs><style>.cls-1{fill:#ffcc01;}.cls-2{fill:none;stroke:#000;stroke-linejoin:round;stroke-width:2px;}</style></defs><title>smm</title><g id="Layer_4" data-name="Layer 4"><path class="cls-1" d="M36,12.92H50.52s4.89,1.29,5.35,3.55.45,12.42.45,12.42L65,49.21v1.45H56.32V59.5l-14.51-.13s-5-1-5.81-4.54S35.67,42,35.67,42H27.29v-2.9l8.09-17.42Z"></path></g><g id="Layer_3" data-name="Layer 3"><path class="cls-2" d="M40.35,12.92H50.52a5.81,5.81,0,0,1,5.8,5.81V28.89L65,49.21v1.45H56.32V65.18a5.8,5.8,0,0,1-5.8,5.8H24.39V85.5L9.87,71H7a5.81,5.81,0,0,1-5.81-5.8V18.73A5.81,5.81,0,0,1,7,12.92H31.65"></path><path class="cls-2" d="M60.68,59.37h7.26V73.89L82.45,59.37h2.9a5.81,5.81,0,0,0,5.81-5.81V7.11a5.81,5.81,0,0,0-5.81-5.8H41.81A5.81,5.81,0,0,0,36,7.11V20.18L27.29,40.5V42H36V53.56a5.81,5.81,0,0,0,5.81,5.81H52"></path><line class="cls-2" x1="63.58" y1="12.92" x2="83.9" y2="12.92"></line><line class="cls-2" x1="63.58" y1="18.73" x2="83.9" y2="18.73"></line><line class="cls-2" x1="63.58" y1="24.53" x2="78.1" y2="24.53"></line><line class="cls-2" x1="8.42" y1="21.63" x2="25.84" y2="21.63"></line><line class="cls-2" x1="8.42" y1="27.44" x2="25.84" y2="27.44"></line><line class="cls-2" x1="8.42" y1="33.24" x2="20.03" y2="33.24"></line></g></svg>