<?xml version="1.0" standalone="no"?>
<!DOCTYPE svg PUBLIC "-//W3C//DTD SVG 20010904//EN"
 "http://www.w3.org/TR/2001/REC-SVG-20010904/DTD/svg10.dtd">
<svg version="1.0" xmlns="http://www.w3.org/2000/svg"
 width="260.000000pt" height="260.000000pt" viewBox="0 0 260.000000 260.000000"
 preserveAspectRatio="xMidYMid meet">
<metadata>
Created by potrace 1.11, written by Peter Selinger 2001-2013
</metadata>
<g transform="translate(0.000000,260.000000) scale(0.100000,-0.100000)"
fill="#000000" stroke="none">
<path d="M784 1966 c-39 -14 -74 -43 -99 -81 -19 -29 -19 -50 -19 -570 0 -599
-2 -577 66 -628 18 -14 105 -62 193 -107 346 -179 332 -173 380 -168 52 6 528
242 579 286 51 46 50 38 50 612 0 487 -1 538 -17 567 -25 48 -65 80 -111 91
-60 14 -983 12 -1022 -2z m1053 -89 l28 -27 3 -523 c3 -478 2 -525 -14 -555
-14 -26 -42 -45 -143 -96 -69 -35 -188 -96 -263 -134 -158 -81 -157 -81 -279
-15 -41 22 -146 78 -234 123 -159 82 -191 105 -201 144 -2 12 -3 254 -2 538
l3 518 28 27 c27 28 30 28 180 33 83 3 313 3 509 0 l358 -5 27 -28z"/>
<path d="M888 1700 c-3 -13 -2 -776 1 -806 1 -5 56 -39 124 -74 67 -35 158
-83 202 -106 l80 -42 205 105 c113 58 207 109 210 113 4 6 5 796 1 820 -1 3
-185 5 -410 5 -357 0 -410 -2 -413 -15z"/>
</g>
</svg>
