<svg xmlns="http://www.w3.org/2000/svg" viewBox="0 0 48.32 220.07"><defs><style>.cls-1{fill:#fff}</style></defs><path class="cls-1" d="M48.32 199.12a3.75 3.75 0 0 1-.61 2.11L36.4 218.07a4.89 4.89 0 0 1-3.73 2H2.85A2.87 2.87 0 0 1 0 217.19v-36.14a2.87 2.87 0 0 1 2.85-2.88h29.82a4.89 4.89 0 0 1 3.73 2L47.71 197a3.77 3.77 0 0 1 .61 2.12zM2 217.19a.9.9 0 0 0 .88.91h29.79a3 3 0 0 0 2.09-1.1l11.32-16.84a2.07 2.07 0 0 0 0-2l-11.32-16.89a3 3 0 0 0-2.09-1.13H2.85a.9.9 0 0 0-.88.91zM31 146.84h-7.52a.4.4 0 0 0-.2.74l6.07 3.61a.4.4 0 0 1 .2.34v2.6a.39.39 0 0 1-.19.34l-5.81 3.6a.4.4 0 0 0 .21.74H31a.39.39 0 0 1 .39.4v5.51a.39.39 0 0 1-.39.4H11.3a.4.4 0 0 1-.4-.4v-5.02a.39.39 0 0 1 .19-.34l10.18-6.22a.41.41 0 0 0 0-.69l-10.18-6a.42.42 0 0 1-.19-.35V141a.39.39 0 0 1 .39-.4l19.71-.07a.39.39 0 0 1 .4.4v5.51a.39.39 0 0 1-.4.4zM27.85 123.47v7.26a.4.4 0 0 0 .25.37l3.07 1.18a.4.4 0 0 1 .25.37v6.16a.39.39 0 0 1-.55.36l-19.73-8.62a.4.4 0 0 1-.24-.37v-6.28a.4.4 0 0 1 .24-.37l19.73-8.62a.4.4 0 0 1 .55.37v6.27a.4.4 0 0 1-.25.37l-3.07 1.18a.4.4 0 0 0-.25.37zm-5.53 1.85l-3.66 1.41a.4.4 0 0 0 0 .74l3.66 1.41a.39.39 0 0 0 .54-.37v-2.82a.4.4 0 0 0-.54-.37zM25 105.52l1.26 1.13a.42.42 0 0 0 .26.1H31a.39.39 0 0 1 .39.4v6a.39.39 0 0 1-.39.4H11.3a.4.4 0 0 1-.4-.4v-6a.4.4 0 0 1 .4-.4h6a.4.4 0 0 0 .27-.7L11 100.12a.36.36 0 0 1-.13-.29v-6.46a.4.4 0 0 1 .66-.3l8.12 7.38a.41.41 0 0 0 .51 0l10.6-8a.4.4 0 0 1 .63.32v7a.38.38 0 0 1-.15.32L25 104.9a.41.41 0 0 0 0 .62zM26.6 74.05H31a.39.39 0 0 1 .39.4v16.27a.39.39 0 0 1-.39.4H11.3a.4.4 0 0 1-.4-.4V74.83a.4.4 0 0 1 .4-.4h4.42a.4.4 0 0 1 .4.4v9.08a.4.4 0 0 0 .4.4h1.6a.4.4 0 0 0 .4-.4V76a.4.4 0 0 1 .4-.4h4.19a.4.4 0 0 1 .4.4v7.88a.4.4 0 0 0 .4.4h1.89a.39.39 0 0 0 .4-.4v-9.43a.4.4 0 0 1 .4-.4zM27.85 48.87v7.25a.39.39 0 0 0 .25.37l3.07 1.19a.38.38 0 0 1 .25.37v6.15a.4.4 0 0 1-.55.37l-19.73-8.63a.38.38 0 0 1-.24-.36V49.3a.39.39 0 0 1 .24-.37l19.72-8.63a.4.4 0 0 1 .56.37v6.27a.38.38 0 0 1-.25.37L28.1 48.5a.39.39 0 0 0-.25.37zm-5.53 1.84l-3.66 1.41a.4.4 0 0 0 0 .75l3.66 1.41a.4.4 0 0 0 .54-.37v-2.83a.4.4 0 0 0-.54-.37zM26.44 30a.4.4 0 0 0-.18.33V32H31a.39.39 0 0 1 .39.4v6.13A.39.39 0 0 1 31 39H11.3a.4.4 0 0 1-.4-.4v-9.54a12.18 12.18 0 0 1 .93-4.95 7.09 7.09 0 0 1 6.81-4.4 7.29 7.29 0 0 1 3.84 1 7 7 0 0 1 2.4 2.5.4.4 0 0 0 .57.14l5.35-3.65a.4.4 0 0 1 .62.33v6.43a.4.4 0 0 1-.17.33zm-9.58-2.64a3.08 3.08 0 0 0-.63 2.11v2.12a.39.39 0 0 0 .4.4h4a.39.39 0 0 0 .4-.4V29.5a3.08 3.08 0 0 0-.63-2.11 2.25 2.25 0 0 0-1.77-.7 2.28 2.28 0 0 0-1.77.7zM16.26 13.33v5.22a.4.4 0 0 1-.4.4H11.3a.4.4 0 0 1-.4-.4V.4a.4.4 0 0 1 .4-.4h4.56a.4.4 0 0 1 .4.4v5.21a.4.4 0 0 0 .4.4H31a.39.39 0 0 1 .39.4v6.12a.39.39 0 0 1-.39.4H16.66a.4.4 0 0 0-.4.4z"/></svg>