<svg id="Capa_1" enable-background="new 0 0 512.018 512.018" height="512" viewBox="0 0 512.018 512.018" width="512" xmlns="http://www.w3.org/2000/svg"><g><g><g><g><g><path d="m509.45 186.639-121-180c-2.79-4.14-7.45-6.63-12.45-6.63s-9.66 2.49-12.45 6.63l-121 180c-6.69 9.96.47 23.37 12.45 23.37h15v287c0 8.28 6.72 15 15 15h182c8.28 0 15-6.72 15-15v-287h15c12 0 19.13-13.42 12.45-23.37z" fill="#ffdf69" id="id_101"></path></g></g></g></g><path d="m497 210.009h-15v287c0 8.28-6.72 15-15 15h-91v-512c5 0 9.66 2.49 12.45 6.63l121 180c6.68 9.95-.45 23.37-12.45 23.37z" fill="#fac400" id="id_102"></path><g><circle cx="346" cy="377.009" fill="#fdf4f5" r="15" id="id_103"></circle></g><g><circle cx="406" cy="437.009" fill="#000000" r="15" id="id_104"></circle></g><g><path d="m416.61 387.619-60 60c-5.86 5.85-15.36 5.85-21.22 0-5.85-5.86-5.85-15.36 0-21.22l40.61-40.61 19.39-19.39c5.86-5.85 15.36-5.85 21.22 0 5.85 5.86 5.85 15.36 0 21.22z" fill="#fdf4f5" id="id_105"></path></g><path d="m416.61 387.619-40.61 40.61v-42.44l19.39-19.39c5.86-5.85 15.36-5.85 21.22 0 5.85 5.86 5.85 15.36 0 21.22z" fill="#000000" id="id_106"></path><g><g><g><g><path d="m225 302.009h-90c-8.28 0-15 6.72-15 15v180c0 8.28 6.72 15 15 15h90c8.28 0 15-6.72 15-15v-180c0-8.28-6.72-15-15-15z" fill="#404040" id="id_107"></path></g></g></g></g><g><g><path d="m75 422.009h-60c-8.28 0-15 6.72-15 15v60c0 8.28 6.72 15 15 15h60c8.28 0 15-6.72 15-15v-60c0-8.28-6.72-15-15-15z" fill="#adadad" id="id_108"></path></g></g><path d="m240 317.009v180c0 8.28-6.72 15-15 15h-45v-210h45c8.28 0 15 6.72 15 15z" fill="#000000" id="id_109"></path><path d="m90 437.009v60c0 8.28-6.72 15-15 15h-30v-90h30c8.28 0 15 6.72 15 15z" fill="#858585" id="id_110"></path></g></svg>