<svg xmlns="http://www.w3.org/2000/svg" width="512" height="512" viewBox="0 0 512 512"> <g> <g> <path d="M496,40V64H16V40A24.006,24.006,0,0,1,40,16H472A24.006,24.006,0,0,1,496,40Z" fill="#ffffff" id="id_101"></path> <circle cx="39" cy="40" r="8" fill="#ffffff" id="id_102"></circle> <circle cx="64" cy="40" r="8" fill="#ffffff" id="id_103"></circle> <circle cx="88" cy="40" r="8" fill="#ffffff" id="id_104"></circle> <rect x="48" y="96" width="416" height="96" fill="#ffffff" id="id_105"></rect> <rect x="48" y="224" width="200" height="96" fill="#ffffff" id="id_106"></rect> <rect x="200" y="352" width="112" height="64" fill="#ffffff" id="id_107"></rect> <rect x="48" y="352" width="112" height="64" fill="#ffffff" id="id_108"></rect> <rect x="352" y="352" width="112" height="64" fill="#ffffff" id="id_109"></rect> </g> <g> <path d="M472,8H40A32.036,32.036,0,0,0,8,40V472a32.036,32.036,0,0,0,32,32H472a32.036,32.036,0,0,0,32-32V40A32.036,32.036,0,0,0,472,8ZM40,24H472a16.019,16.019,0,0,1,16,16V56H24V40A16.019,16.019,0,0,1,40,24ZM472,488H40a16.019,16.019,0,0,1-16-16V72H488V472A16.019,16.019,0,0,1,472,488Z" fill="#000000" id="id_110"></path> <circle cx="39" cy="40" r="8" fill="#000000" id="id_111"></circle> <circle cx="64" cy="40" r="8" fill="#000000" id="id_112"></circle> <circle cx="88" cy="40" r="8" fill="#000000" id="id_113"></circle> <path d="M464,88H48a8,8,0,0,0-8,8v96a8,8,0,0,0,8,8H464a8,8,0,0,0,8-8V96A8,8,0,0,0,464,88Zm-8,96H56V104H456Z" fill="#f0e400" id="id_114"></path> <path d="M48,328H248a8,8,0,0,0,8-8V224a8,8,0,0,0-8-8H48a8,8,0,0,0-8,8v96A8,8,0,0,0,48,328Zm8-96H240v80H56Z" fill="#f2e600" id="id_115"></path> <path d="M464,216H280a8,8,0,0,0,0,16H464a8,8,0,0,0,0-16Z" fill="#f5e900" id="id_116"></path> <path d="M464,240H280a8,8,0,0,0,0,16H464a8,8,0,0,0,0-16Z" fill="#f5dd00" id="id_117"></path> <path d="M464,264H280a8,8,0,0,0,0,16H464a8,8,0,0,0,0-16Z" fill="#f0d800" id="id_118"></path> <path d="M464,288H280a8,8,0,0,0,0,16H464a8,8,0,0,0,0-16Z" fill="#f0d800" id="id_119"></path> <path d="M416,328a8,8,0,0,0,0-16H280a8,8,0,0,0,0,16Z" fill="#f0d800" id="id_120"></path> <path d="M448,328a8,8,0,0,0,0-16h-8a8,8,0,0,0,0,16Z" fill="#f0d800" id="id_121"></path> <path d="M312,344H200a8,8,0,0,0-8,8v64a8,8,0,0,0,8,8H312a8,8,0,0,0,8-8V352A8,8,0,0,0,312,344Zm-8,64H208V360h96Z" fill="#f0d800" id="id_122"></path> <path d="M312,432H200a8,8,0,0,0,0,16H312a8,8,0,0,0,0-16Z" fill="#f2da00" id="id_123"></path> <path d="M240,456H200a8,8,0,0,0,0,16h40a8,8,0,0,0,0-16Z" fill="#f0d800" id="id_124"></path> <path d="M160,344H48a8,8,0,0,0-8,8v64a8,8,0,0,0,8,8H160a8,8,0,0,0,8-8V352A8,8,0,0,0,160,344Zm-8,64H56V360h96Z" fill="#f2da00" id="id_125"></path> <path d="M160,432H48a8,8,0,0,0,0,16H160a8,8,0,0,0,0-16Z" fill="#f5dd00" id="id_126"></path> <path d="M88,456H48a8,8,0,0,0,0,16H88a8,8,0,0,0,0-16Z" fill="#f5dd00" id="id_127"></path> <path d="M464,344H352a8,8,0,0,0-8,8v64a8,8,0,0,0,8,8H464a8,8,0,0,0,8-8V352A8,8,0,0,0,464,344Zm-8,64H360V360h96Z" fill="#f2da00" id="id_128"></path> <path d="M464,432H352a8,8,0,0,0,0,16H464a8,8,0,0,0,0-16Z" fill="#f5dd00" id="id_129"></path> <path d="M392,456H352a8,8,0,0,0,0,16h40a8,8,0,0,0,0-16Z" fill="#f2da00" id="id_130"></path> </g> </g> </svg>