<svg height="597pt" viewBox="-18 -32 597.33331 597" width="597pt" xmlns="http://www.w3.org/2000/svg"><path d="m82.5 96.207031c16.566406 0 30-13.429687 30-30 0-16.566406-13.433594-30-30-30s-30 13.433594-30 30c.019531 16.5625 13.4375 29.980469 30 30zm0-37.5c4.140625 0 7.5 3.359375 7.5 7.5s-3.359375 7.5-7.5 7.5-7.5-3.359375-7.5-7.5c.003906-4.140625 3.359375-7.492187 7.5-7.5zm0 0" id="id_101" style="fill: rgb(0, 0, 0);"></path><path d="m157.5 96.207031c16.566406 0 30-13.429687 30-30 0-16.566406-13.433594-30-30-30s-30 13.433594-30 30c.019531 16.5625 13.4375 29.980469 30 30zm0-37.5c4.140625 0 7.5 3.359375 7.5 7.5s-3.359375 7.5-7.5 7.5-7.5-3.359375-7.5-7.5c.003906-4.140625 3.359375-7.492187 7.5-7.5zm0 0" id="id_102" style="fill: rgb(0, 0, 0);"></path><path d="m232.5 96.207031c16.566406 0 30-13.429687 30-30 0-16.566406-13.433594-30-30-30s-30 13.433594-30 30c.019531 16.5625 13.4375 29.980469 30 30zm0-37.5c4.140625 0 7.5 3.359375 7.5 7.5s-3.359375 7.5-7.5 7.5-7.5-3.359375-7.5-7.5c.003906-4.140625 3.359375-7.492187 7.5-7.5zm0 0" id="id_103" style="fill: rgb(0, 0, 0);"></path><path d="m548.75 339.527344h-63.75v-278.945313c-.039062-33.8125-27.4375-61.210937-61.25-61.25h-362.5c-33.8125.039063-61.2109375 27.4375-61.25 61.25v325c.0390625 33.816407 27.4375 61.210938 61.25 61.25h140.75v75.039063c0 6.21875 5.035156 11.25 11.25 11.25h335.5c6.210938 0 11.25-5.03125 11.25-11.25v-171.09375c0-6.210938-5.039062-11.25-11.25-11.25zm-487.5-317.695313h362.5c21.390625.027344 38.726562 17.359375 38.75 38.75v51.25h-440v-51.25c.023438-21.390625 17.359375-38.722656 38.75-38.75zm287.988281 488.789063h-20.796875v-61.257813h20.796875zm-43.296875 0h-18.34375v-61.257813h18.34375zm106.402344 0h-40.605469v-72.507813c0-6.214843-5.035156-11.25-11.25-11.25h-84.140625c-6.210937 0-11.25 5.035157-11.25 11.25v72.507813h-40.597656v-219.757813h187.84375zm-36.8125-268.371094v26.101562h-114.222656v-26.09375zm22.5 26.101562v-37.34375c0-6.214843-5.03125-11.25-11.25-11.25h-58.339844v-30.425781c0-6.210937-5.039062-11.25-11.25-11.25-6.210937 0-11.25 5.039063-11.25 11.25v30.425781h-55.882812c-6.214844 0-11.25 5.035157-11.25 11.25v37.355469h-25.558594c-6.214844 0-11.25 5.03125-11.25 11.25v144.71875h-140.75c-21.390625-.023437-38.726562-17.355469-38.75-38.75v-251.25h440v205.195313h-27.65625v-59.914063c0-6.21875-5.039062-11.25-11.25-11.25zm139.46875 242.269532h-102.65625v-148.59375h102.65625zm0 0" id="id_104" style="fill: rgb(240, 208, 0);"></path><path d="m255.941406 341.832031h125c6.210938 0 11.25-5.039062 11.25-11.25 0-6.210937-5.039062-11.25-11.25-11.25h-125c-6.210937 0-11.25 5.039063-11.25 11.25 0 6.210938 5.039063 11.25 11.25 11.25zm0 0" id="id_105" style="fill: rgb(235, 204, 0);"></path><path d="m255.941406 399.332031h125c6.210938 0 11.25-5.039062 11.25-11.25 0-6.210937-5.039062-11.25-11.25-11.25h-125c-6.210937 0-11.25 5.039063-11.25 11.25 0 6.210938 5.039063 11.25 11.25 11.25zm0 0" id="id_106" style="fill: rgb(240, 208, 0);"></path><path d="m458.441406 411.832031h53.75c6.210938 0 11.25-5.039062 11.25-11.25 0-6.210937-5.039062-11.25-11.25-11.25h-53.75c-6.210937 0-11.25 5.039063-11.25 11.25 0 6.210938 5.039063 11.25 11.25 11.25zm0 0" id="id_107" style="fill: rgb(235, 204, 0);"></path><path d="m512.191406 440.582031h-53.75c-6.210937 0-11.25 5.039063-11.25 11.25 0 6.210938 5.039063 11.25 11.25 11.25h53.75c6.210938 0 11.25-5.039062 11.25-11.25 0-6.210937-5.039062-11.25-11.25-11.25zm0 0" id="id_108" style="fill: rgb(240, 208, 0);"></path><path d="m171.25 186.832031h-97.5c-6.210938 0-11.25 5.039063-11.25 11.25v58.335938c0 6.210937 5.039062 11.25 11.25 11.25h97.5c6.210938 0 11.25-5.039063 11.25-11.25v-58.335938c0-6.210937-5.039062-11.25-11.25-11.25zm-11.25 58.335938h-75v-35.835938h75zm0 0" id="id_109" style="fill: rgb(0, 0, 0);"></path><path d="m73.75 313.5h60c6.210938 0 11.25-5.035156 11.25-11.25 0-6.210938-5.039062-11.25-11.25-11.25h-60c-6.210938 0-11.25 5.039062-11.25 11.25 0 6.214844 5.039062 11.25 11.25 11.25zm0 0" id="id_110" style="fill: rgb(0, 0, 0);"></path><path d="m171.25 336.832031h-97.5c-6.210938 0-11.25 5.039063-11.25 11.25 0 6.210938 5.039062 11.25 11.25 11.25h97.5c6.210938 0 11.25-5.039062 11.25-11.25 0-6.210937-5.039062-11.25-11.25-11.25zm0 0" id="id_111" style="fill: rgb(0, 0, 0);"></path></svg>