<svg xmlns:dc="http://purl.org/dc/elements/1.1/" xmlns:cc="http://creativecommons.org/ns#" xmlns:rdf="http://www.w3.org/1999/02/22-rdf-syntax-ns#" xmlns:svg="http://www.w3.org/2000/svg" xmlns="http://www.w3.org/2000/svg" xmlns:sodipodi="http://sodipodi.sourceforge.net/DTD/sodipodi-0.dtd" xmlns:inkscape="http://www.inkscape.org/namespaces/inkscape" width="64" height="64" viewBox="0 0 16.933333 16.933334" version="1.1" id="svg8" inkscape:version="1.0 (4035a4fb49, 2020-05-01)" sodipodi:docname="HTML file.svg">
<defs id="defs2">
<clipPath clipPathUnits="userSpaceOnUse" id="clipPath16">
<path d="M 0,192 H 192 V 0 H 0 Z" id="path18" inkscape:connector-curvature="0"></path>
</clipPath>
<clipPath clipPathUnits="userSpaceOnUse" id="clipPath26">
<path d="M -4.88281e-4,192 H 192 V -4.88281e-4 H -4.88281e-4 Z" id="path28" inkscape:connector-curvature="0"></path>
</clipPath>
<clipPath clipPathUnits="userSpaceOnUse" id="clipPath34">
<path d="M -4.88281e-4,192 H 192 V -4.88281e-4 H -4.88281e-4 Z" id="path36" inkscape:connector-curvature="0"></path>
</clipPath>
<clipPath clipPathUnits="userSpaceOnUse" id="clipPath38">
<path d="M 0,192 H 192 V 0 H 0 Z" id="path40" inkscape:connector-curvature="0"></path>
</clipPath>
<clipPath clipPathUnits="userSpaceOnUse" id="clipPath42">
<path d="M 0,192 H 192 V 0 H 0 Z" id="path44" inkscape:connector-curvature="0"></path>
</clipPath>
<clipPath clipPathUnits="userSpaceOnUse" id="clipPath116">
<path d="M 0,192 H 192 V -4.88281e-4 H 0 Z" id="path118" inkscape:connector-curvature="0"></path>
</clipPath>
<clipPath clipPathUnits="userSpaceOnUse" id="clipPath120">
<path d="M 0,192 H 192 V 4.88281e-4 H 0 Z" id="path122" inkscape:connector-curvature="0"></path>
</clipPath>
<clipPath clipPathUnits="userSpaceOnUse" id="clipPath124">
<path d="M 192,192 H 0 V 0 h 192 z" id="path126" inkscape:connector-curvature="0" style="fill: rgb(0, 0, 0);"></path>
</clipPath>
</defs>
<sodipodi:namedview id="base" pagecolor="#ffffff" bordercolor="#666666" borderopacity="1.0" inkscape:pageopacity="0.0" inkscape:pageshadow="2" inkscape:zoom="6.4596567" inkscape:cx="54.981639" inkscape:cy="39.825593" inkscape:document-units="px" inkscape:current-layer="layer1" inkscape:document-rotation="0" showgrid="false" units="px" inkscape:window-width="1366" inkscape:window-height="706" inkscape:window-x="-8" inkscape:window-y="-8" inkscape:window-maximized="1"></sodipodi:namedview>
<metadata id="metadata5">
<rdf:rdf>
<cc:work rdf:about="">
<dc:format>image/svg+xml</dc:format>
<dc:type rdf:resource="http://purl.org/dc/dcmitype/StillImage"></dc:type>
<dc:title></dc:title>
</cc:work>
</rdf:rdf>
</metadata>
<g inkscape:label="Layer 1" inkscape:groupmode="layer" id="layer1">
<g transform="translate(-2.7458184,3.8169643)" id="g1702">
<g id="g1697" transform="matrix(1.0336578,0,0,1.0333305,-0.16567103,0.11840407)" style="stroke-width:0.967591">
<path id="path1710" d="M 4.9217235,-3.8085938 A 0.25603411,0.25603411 0 0 0 4.6658641,-3.5527344 V 12.322266 a 0.25603411,0.25603411 0 0 0 0.2558594,0.255859 H 17.093598 a 0.25603411,0.25603411 0 0 0 0.255859,-0.255859 V 1.3886719 a 0.25603411,0.25603411 0 0 0 -0.07227,-0.1796875 l -4.796875,-4.9179688 v -0.00195 a 0.25600851,0.25600851 0 0 0 -0.01953,-0.019531 0.25600851,0.25600851 0 0 0 -0.02149,-0.019531 0.25600851,0.25600851 0 0 0 -0.02344,-0.017578 0.25600851,0.25600851 0 0 0 -0.02344,-0.013672 0.25600851,0.25600851 0 0 0 -0.01367,-0.00586 0.25600851,0.25600851 0 0 0 -0.02539,-0.00977 0.25600851,0.25600851 0 0 0 -0.01367,-0.00391 0.25600851,0.25600851 0 0 0 -0.0059,0 0.25600851,0.25600851 0 0 0 -0.03711,-0.00586 0.25600851,0.25600851 0 0 0 -0.01367,-0.00195 0.25600851,0.25600851 0 0 0 -0.0059,0 h -0.0078 z m 0.2558594,0.5117188 h 6.9902341 l 4.669922,4.7890625 V 12.066406 H 5.1775829 Z" style="color:#000000;font-style:normal;font-variant:normal;font-weight:normal;font-stretch:normal;font-size:medium;line-height:normal;font-family:sans-serif;font-variant-ligatures:normal;font-variant-position:normal;font-variant-caps:normal;font-variant-numeric:normal;font-variant-alternates:normal;font-variant-east-asian:normal;font-feature-settings:normal;font-variation-settings:normal;text-indent:0;text-align:start;text-decoration:none;text-decoration-line:none;text-decoration-style:solid;text-decoration-color:#000000;letter-spacing:normal;word-spacing:normal;text-transform:none;writing-mode:lr-tb;direction:ltr;text-orientation:mixed;dominant-baseline:auto;baseline-shift:baseline;text-anchor:start;white-space:normal;shape-padding:0;shape-margin:0;inline-size:0;clip-rule:nonzero;display:inline;overflow:visible;visibility:visible;opacity:0.99;isolation:auto;mix-blend-mode:normal;color-interpolation:sRGB;color-interpolation-filters:linearRGB;solid-color:#000000;solid-opacity:1;vector-effect:none;fill:#000000;fill-opacity:1;fill-rule:nonzero;stroke:none;stroke-width:0.512017;stroke-linecap:round;stroke-linejoin:round;stroke-miterlimit:4;stroke-dasharray:none;stroke-dashoffset:0;stroke-opacity:1;color-rendering:auto;image-rendering:auto;shape-rendering:auto;text-rendering:auto;enable-background:accumulate;stop-color:#000000;stop-opacity:1"></path>
<path id="path1706" d="M 12.269531 -3.8085938 A 0.25603411 0.25603411 0 0 0 12.021484 -3.5527344 L 12.021484 1.3886719 A 0.25603411 0.25603411 0 0 0 12.277344 1.6445312 L 17.09375 1.6445312 A 0.25603411 0.25603411 0 0 0 17.277344 1.2089844 L 12.460938 -3.7304688 A 0.25603411 0.25603411 0 0 0 12.269531 -3.8085938 z M 12.533203 -2.921875 L 16.488281 1.1328125 L 12.533203 1.1328125 L 12.533203 -2.921875 z " style="color: rgb(0, 0, 0); font: medium sans-serif; font-feature-settings: normal; font-variation-settings: normal; text-indent: 0px; text-align: start; text-decoration: none solid rgb(0, 0, 0); letter-spacing: normal; word-spacing: normal; text-transform: none; writing-mode: lr-tb; direction: ltr; text-orientation: mixed; dominant-baseline: auto; baseline-shift: baseline; text-anchor: start; white-space: normal; shape-margin: 0px; inline-size: 0px; clip-rule: nonzero; display: inline; overflow: visible; visibility: visible; isolation: auto; mix-blend-mode: normal; color-interpolation: srgb; color-interpolation-filters: linearrgb; vector-effect: none; fill: rgb(0, 0, 0); fill-opacity: 1; fill-rule: nonzero; stroke: none; stroke-width: 0.512017; stroke-linecap: round; stroke-linejoin: round; stroke-miterlimit: 4; stroke-dasharray: none; stroke-dashoffset: 0; stroke-opacity: 1; color-rendering: auto; image-rendering: auto; shape-rendering: auto; text-rendering: auto; stop-color: rgb(0, 0, 0); stop-opacity: 1; opacity: 0.99;"></path>
</g>
</g>
<g style="font-size:4.23333px;line-height:2;font-family:Calibri;-inkscape-font-specification:Calibri;text-align:center;writing-mode:lr-tb;text-anchor:middle;opacity:0.99;fill:none;stroke:#000000;stroke-width:0.264583;stroke-linecap:round;stroke-linejoin:round;stop-color:#000000" id="text26" aria-label="HTML">
<path id="path29" style="font-weight: normal; font-size: 4.23333px; fill: rgb(245, 221, 0); fill-opacity: 1; stroke: none; stroke-width: 0.264583;" d="m 5.5366155,15.110706 q 0,0.01654 -0.00827,0.02894 -0.00827,0.0124 -0.028939,0.02067 -0.020671,0.0062 -0.055811,0.01033 -0.033073,0.0062 -0.082682,0.0062 -0.053743,0 -0.086816,-0.0062 -0.033073,-0.0041 -0.053743,-0.01033 -0.020671,-0.0083 -0.028939,-0.02067 -0.00827,-0.0124 -0.00827,-0.02894 v -1.18649 H 3.9656533 v 1.18649 q 0,0.01654 -0.00827,0.02894 -0.00827,0.0124 -0.028939,0.02067 -0.020671,0.0062 -0.055811,0.01033 -0.033073,0.0062 -0.084749,0.0062 -0.049609,0 -0.084749,-0.0062 -0.03514,-0.0041 -0.055811,-0.01033 -0.020671,-0.0083 -0.028939,-0.02067 -0.00827,-0.0124 -0.00827,-0.02894 v -2.567283 q 0,-0.01654 0.00827,-0.02894 0.00827,-0.0124 0.028939,-0.0186 0.020671,-0.0083 0.055811,-0.0124 0.03514,-0.0062 0.084749,-0.0062 0.051676,0 0.084749,0.0062 0.03514,0.0041 0.055811,0.0124 0.020671,0.0062 0.028939,0.0186 0.00827,0.0124 0.00827,0.02894 v 1.070735 H 5.183149 v -1.070735 q 0,-0.01654 0.00827,-0.02894 0.00827,-0.0124 0.028939,-0.0186 0.020671,-0.0083 0.053743,-0.0124 0.033073,-0.0062 0.086816,-0.0062 0.049609,0 0.082682,0.0062 0.03514,0.0041 0.055811,0.0124 0.02067,0.0062 0.028939,0.0186 0.00827,0.0124 0.00827,0.02894 z"></path>
<path id="path31" style="font-weight: normal; font-size: 4.23333px; fill: rgb(245, 221, 0); fill-opacity: 1; stroke: none; stroke-width: 0.264583;" d="m 7.9240647,12.642642 q 0,0.03927 -0.00413,0.06821 -0.00413,0.02894 -0.014469,0.04754 -0.00827,0.01654 -0.022738,0.0248 -0.012402,0.0083 -0.028939,0.0083 H 7.1013766 v 2.319236 q 0,0.01654 -0.00827,0.02894 -0.00827,0.0124 -0.028939,0.02067 -0.02067,0.0062 -0.05581,0.01033 -0.033073,0.0062 -0.084749,0.0062 -0.049609,0 -0.084749,-0.0062 -0.03514,-0.0041 -0.055811,-0.01033 -0.020671,-0.0083 -0.028939,-0.02067 -0.00827,-0.0124 -0.00827,-0.02894 V 12.79147 H 5.9934349 q -0.016536,0 -0.031006,-0.0083 -0.012402,-0.0083 -0.020671,-0.0248 -0.00827,-0.0186 -0.014469,-0.04754 -0.00413,-0.02894 -0.00413,-0.06821 0,-0.03927 0.00413,-0.06821 0.0062,-0.03101 0.014469,-0.04961 0.00827,-0.0186 0.020671,-0.02687 0.014469,-0.0083 0.031006,-0.0083 h 1.86035 q 0.016536,0 0.028939,0.0083 0.014469,0.0083 0.022738,0.02687 0.010335,0.0186 0.014469,0.04961 0.00413,0.02894 0.00413,0.06821 z"></path>
<path id="path33" style="font-weight: normal; font-size: 4.23333px; fill: rgb(240, 216, 0); fill-opacity: 1; stroke: none; stroke-width: 0.264583;" d="m 11.223085,15.110706 q 0,0.01654 -0.0083,0.02894 -0.0083,0.0124 -0.02894,0.02067 -0.02067,0.0062 -0.05374,0.01033 -0.03101,0.0062 -0.08268,0.0062 -0.04754,0 -0.08268,-0.0062 -0.03307,-0.0041 -0.05374,-0.01033 -0.0186,-0.0083 -0.02687,-0.02067 -0.0083,-0.0124 -0.0083,-0.02894 v -2.329571 h -0.0041 l -0.9529127,2.339907 q -0.0062,0.01447 -0.018603,0.0248 -0.010335,0.01033 -0.033073,0.0186 -0.02067,0.0062 -0.051676,0.0083 -0.028939,0.0041 -0.07028,0.0041 -0.043408,0 -0.074414,-0.0041 -0.031006,-0.0041 -0.051676,-0.01033 -0.020671,-0.0083 -0.033073,-0.0186 -0.010335,-0.01033 -0.014469,-0.02274 L 8.6620035,12.781135 h -0.00207 v 2.329571 q 0,0.01654 -0.00827,0.02894 -0.00827,0.0124 -0.028939,0.02067 -0.020671,0.0062 -0.053743,0.01033 -0.033073,0.0062 -0.084749,0.0062 -0.049609,0 -0.082682,-0.0062 -0.033073,-0.0041 -0.053743,-0.01033 -0.018603,-0.0083 -0.026872,-0.02067 -0.0062,-0.0124 -0.0062,-0.02894 V 12.65091 q 0,-0.08682 0.045475,-0.124023 0.045475,-0.03721 0.1012857,-0.03721 h 0.2149738 q 0.066146,0 0.1157551,0.0124 0.049609,0.0124 0.086816,0.03927 0.037207,0.02687 0.062012,0.06821 0.024805,0.04134 0.043408,0.09715 L 9.75961,14.643552 h 0.010335 l 0.8061517,-1.93063 q 0.02274,-0.06201 0.04961,-0.10542 0.02687,-0.04341 0.05788,-0.06821 0.03307,-0.02687 0.07235,-0.03721 0.03927,-0.0124 0.09095,-0.0124 h 0.225309 q 0.03101,0 0.05788,0.01033 0.02894,0.0083 0.04754,0.02894 0.02067,0.0186 0.03307,0.04961 0.0124,0.02894 0.0124,0.07235 z"></path>
<path id="path35" style="font-weight: normal; font-size: 4.23333px; fill: rgb(242, 218, 0); fill-opacity: 1; stroke: none; stroke-width: 0.264583;" d="m 13.323213,15.009421 q 0,0.04134 -0.0041,0.07028 -0.0041,0.02687 -0.01447,0.04754 -0.0083,0.0186 -0.02274,0.02894 -0.0124,0.0083 -0.03101,0.0083 h -1.182355 q -0.04754,0 -0.09095,-0.03101 -0.04134,-0.03307 -0.04134,-0.113688 v -2.476333 q 0,-0.01654 0.0083,-0.02894 0.0083,-0.0124 0.02894,-0.0186 0.02067,-0.0083 0.05581,-0.0124 0.03514,-0.0062 0.08475,-0.0062 0.05168,0 0.08475,0.0062 0.03514,0.0041 0.05581,0.0124 0.02067,0.0062 0.02894,0.0186 0.0083,0.0124 0.0083,0.02894 v 2.313035 h 0.959113 q 0.0186,0 0.03101,0.01034 0.01447,0.0083 0.02274,0.02687 0.01033,0.01654 0.01447,0.04548 0.0041,0.02894 0.0041,0.07028 z"></path>
</g>
</g>
</svg>