<svg version="1.1" xmlns="http://www.w3.org/2000/svg" xmlns:xlink="http://www.w3.org/1999/xlink" x="0px" y="0px" width="512px" height="512px" viewBox="0 0 512 512" style="enable-background:new 0 0 512 512;" xml:space="preserve">
<g id="A175__x2C_Manat__x2C_Currency__x2C_Turkmenistan">
<path d="M417.383,215.959c-33.523-46.728-82.85-83.963-141.209-90.843V81.8c0-25.794-39.999-25.794-39.999,0v43.316
		C155.788,134.593,95.8,199.438,64.063,269.92c-16.095,35.745-25.972,74.181-30.313,113.101c-1.086,9.74-1.824,19.52-2.224,29.313
		c-0.362,8.904-2.302,19.996,2.692,27.958c8.977,14.313,31.415,11.244,36.156-4.998c1.862-6.38,0.83-13.889,1.083-20.479
		c0.313-8.155,0.885-16.301,1.722-24.419c1.555-15.07,4.024-30.049,7.462-44.806c6.537-28.064,16.583-55.397,30.584-80.614
		c26.376-47.506,69.203-90.786,124.948-99.482v164.247c0,25.794,39.999,25.794,39.999,0V165.492
		c73.662,11.493,123.037,80.65,145.889,146.62c13.061,37.7,19.111,77.717,19.111,117.566c0,17.024,20.91,26.264,33.49,14.767
		c6.607-6.041,6.59-13.905,6.445-22.22c-0.186-10.662-0.771-21.317-1.766-31.935C473.547,328.407,453.816,266.748,417.383,215.959
		C396.924,187.441,458.52,273.302,417.383,215.959z" id="id_101" style="fill: rgb(255, 255, 255);"></path>
</g>
<g id="Layer_1">
</g>
</svg>