<svg xmlns="http://www.w3.org/2000/svg" viewBox="0 0 64 64" width="512" height="512"><g id="Outline"><g><path d="M56.5,16.41a1,1,0,0,0-1,1.73A1,1,0,0,1,56,19V44H53V39a1,1,0,0,0-2,0v5H13V28a1,1,0,0,0-2,0V45a1,1,0,0,0,1,1H56v3a1,1,0,0,1-1,1H9a1,1,0,0,1-1-1V19a1,1,0,0,1,.5-.86,1,1,0,0,0-1-1.73A3,3,0,0,0,6,19V49a3,3,0,0,0,3,3H22.13l-2.67,4H17a1,1,0,0,0,0,2H47a1,1,0,0,1,1,1v1H15a1,1,0,0,0,0,2H49a1,1,0,0,0,1-1V59a3,3,0,0,0-3-3H44.54l-2.67-4H55a3,3,0,0,0,3-3V19A3,3,0,0,0,56.5,16.41ZM42.13,56H21.87l2.67-4H39.46Z" id="id_101" style="fill: rgb(0, 0, 0);"></path><path d="M12,25a1,1,0,0,0,1-1V4H51V35a1,1,0,0,0,2,0V3a1,1,0,0,0-1-1H12a1,1,0,0,0-1,1V24A1,1,0,0,0,12,25Z" id="id_102" style="fill: rgb(0, 0, 0);"></path><path d="M16,16a1,1,0,0,0,1-1V10l4.2,5.6a1,1,0,0,0,.8.4,1.19,1.19,0,0,0,.32-.05A1,1,0,0,0,23,15V7a1,1,0,0,0-2,0v5L16.8,6.4A1,1,0,0,0,15,7v8A1,1,0,0,0,16,16Z" id="id_103" style="fill: rgb(240, 208, 0);"></path><path d="M30,8a1,1,0,0,0,0-2H26a1,1,0,0,0-1,1v8a1,1,0,0,0,1,1h4a1,1,0,0,0,0-2H27V12h3a1,1,0,0,0,0-2H27V8Z" id="id_104" style="fill: rgb(240, 208, 0);"></path><path d="M35,16a1,1,0,0,0,1-.76l1-4.12,1,4.12a1,1,0,0,0,1.94,0l2-8A1,1,0,1,0,40,6.76l-1,4.12L38,6.76a1,1,0,0,0-1.94,0l-1,4.12L34,6.76A1,1,0,1,0,32,7.24l2,8A1,1,0,0,0,35,16Z" id="id_105" style="fill: rgb(245, 212, 0);"></path><path d="M46,8a1,1,0,0,1,1,1,1,1,0,0,0,2,0,3,3,0,1,0-3,3,1,1,0,1,1-1,1,1,1,0,0,0-2,0,3,3,0,1,0,3-3,1,1,0,0,1,0-2Z" id="id_106" style="fill: rgb(240, 208, 0);"></path><path d="M47,22H36a1,1,0,0,0,0,2H47a1,1,0,0,0,0-2Z" id="id_107" style="fill: rgb(240, 208, 0);"></path><path d="M47,26H33a1,1,0,0,0,0,2H47a1,1,0,0,0,0-2Z" id="id_108" style="fill: rgb(245, 212, 0);"></path><path d="M47,30H33a1,1,0,0,0,0,2H47a1,1,0,0,0,0-2Z" id="id_109" style="fill: rgb(240, 208, 0);"></path><path d="M47,34H33a1,1,0,0,0,0,2H47a1,1,0,0,0,0-2Z" id="id_110" style="fill: rgb(240, 208, 0);"></path><path d="M47,38H33a1,1,0,0,0,0,2H47a1,1,0,0,0,0-2Z" id="id_111" style="fill: rgb(245, 212, 0);"></path><path d="M26,34H20a1,1,0,0,0,0,2h6a1,1,0,0,0,0-2Z" id="id_112" style="fill: rgb(242, 210, 0);"></path><path d="M26,38H16a1,1,0,0,0,0,2H26a1,1,0,0,0,0-2Z" id="id_113" style="fill: rgb(240, 208, 0);"></path><path d="M27,21a1,1,0,0,0-1-1H16a1,1,0,0,0-1,1V31a1,1,0,0,0,1,1H26a1,1,0,0,0,1-1Zm-2,1v4H21V25a1,1,0,0,0-1-1H17V22Zm-8,4h2v4H17Zm8,4H21V28h4Z" id="id_114" style="fill: rgb(237, 205, 0);"></path></g></g></svg>