<svg xmlns="http://www.w3.org/2000/svg" viewBox="0 0 64 64"><defs><style>.cls-1{fill:#72c1dd;}.cls-2{fill:#231f20;}</style></defs><title>Laptop, monitor, rocket, seo, space</title><g id="_3" data-name="3"><path class="cls-1" d="M38.875,19,34.5,9.59,32,8l-6.625,9V32s13.375.125,13.5-.187S38.875,19,38.875,19ZM32,21.438A1.438,1.438,0,1,1,33.438,20,1.437,1.437,0,0,1,32,21.438Z" id="id_101" style="fill: rgb(245, 204, 0);"></path></g><g id="Layer_28" data-name="Layer 28"><path class="cls-2" d="M52,53H12a5.006,5.006,0,0,1-5-5V46a1,1,0,0,1,1-1H56a1,1,0,0,1,1,1v2A5.006,5.006,0,0,1,52,53ZM9,47v1a3,3,0,0,0,3,3H52a3,3,0,0,0,3-3V47Z" id="id_102"></path><path class="cls-2" d="M36,50H28a1,1,0,0,1-1-1V46a1,1,0,0,1,2,0v2h6V46a1,1,0,0,1,2,0v3A1,1,0,0,1,36,50Z" id="id_103"></path><path class="cls-2" d="M54,47H10a1,1,0,0,1-1-1V12a1,1,0,0,1,1-1H24.49a1,1,0,0,1,0,2H11V45H53V13H39.51a1,1,0,0,1,0-2H54a1,1,0,0,1,1,1V46A1,1,0,0,1,54,47Z" id="id_104"></path><path class="cls-2" d="M39,33H25a1,1,0,0,1-1-1V23.284A20.856,20.856,0,0,1,30.151,8.436l1.142-1.143a1.029,1.029,0,0,1,1.414,0l1.142,1.143A20.856,20.856,0,0,1,40,23.284V32A1,1,0,0,1,39,33ZM26,31H38V23.284A18.875,18.875,0,0,0,32.435,9.85L32,9.414l-.435.436A18.875,18.875,0,0,0,26,23.284Z" id="id_105"></path><path class="cls-2" d="M25,33H20a1,1,0,0,1-1-1V27a6.006,6.006,0,0,1,6-6,1,1,0,0,1,1,1V32A1,1,0,0,1,25,33Zm-4-2h3V23.127A4.006,4.006,0,0,0,21,27Z" id="id_106"></path><path class="cls-2" d="M44,33H39a1,1,0,0,1-1-1V22a1,1,0,0,1,1-1,6.006,6.006,0,0,1,6,6v5A1,1,0,0,1,44,33Zm-4-2h3V27a4.006,4.006,0,0,0-3-3.873Z" id="id_107"></path><path class="cls-2" d="M32,23a3,3,0,1,1,3-3A3,3,0,0,1,32,23Zm0-4a1,1,0,1,0,1,1A1,1,0,0,0,32,19Z" id="id_108"></path><path class="cls-2" d="M33.5,27.5h-3a1,1,0,0,1,0-2h3a1,1,0,0,1,0,2Z" id="id_109"></path><path class="cls-2" d="M36,36H28a1,1,0,0,1-1-1V32a1,1,0,0,1,1-1h8a1,1,0,0,1,1,1v3A1,1,0,0,1,36,36Zm-7-2h6V33H29Z" id="id_110"></path><path class="cls-2" d="M29,39a1,1,0,0,1-1-1V35a1,1,0,0,1,2,0v3A1,1,0,0,1,29,39Z" id="id_111"></path><path class="cls-2" d="M32,42a1,1,0,0,1-1-1V35a1,1,0,0,1,2,0v6A1,1,0,0,1,32,42Z" id="id_112"></path><path class="cls-2" d="M35,39a1,1,0,0,1-1-1V35a1,1,0,0,1,2,0v3A1,1,0,0,1,35,39Z" id="id_113"></path></g></svg>