<svg version="1.1" id="_x31_-outline-expand" xmlns="http://www.w3.org/2000/svg" xmlns:xlink="http://www.w3.org/1999/xlink" x="0px" y="0px" viewBox="0 0 64 64" style="enable-background:new 0 0 64 64;" xml:space="preserve">
<path d="M63.317,16.523c-0.869-2.348-3.465-3.754-5.928-3.129l-3.442-2.099c-1.3-0.787-2.871-0.941-4.309-0.424l-12.592,4.582
	L26.706,0.842c-0.26-0.367-0.737-0.515-1.158-0.362l-5.63,2.05c-0.52,0.189-0.787,0.762-0.598,1.281l5.808,15.977l-12.52,4.556
	l-6.725-7.522c-0.271-0.304-0.702-0.414-1.087-0.273l-3.759,1.368c-0.52,0.188-0.787,0.763-0.598,1.281L5.91,34.232
	c0.144,0.396,0.52,0.658,0.939,0.658c0.004,0,0.008,0,0.013,0l21.19-0.26c0.112-0.001,0.225-0.022,0.33-0.061l1.877-0.685
	l5.473,15.036c0.147,0.406,0.531,0.659,0.939,0.659c0.113,0,0.229-0.02,0.342-0.061l5.639-2.053
	c0.424-0.154,0.692-0.573,0.654-1.022l-1.395-16.797l18.42-6.708c1.967-0.716,3.288-2.608,3.288-4.709
	C63.62,17.661,63.52,17.09,63.317,16.523z M21.541,4.068l3.974-1.447l9.584,13.54l-8.092,2.944L21.541,4.068z M5.395,26.969
	L2.66,19.455l2.184-0.794l5.741,6.42L5.395,26.969z M37.27,47.297l-6.841-18.794l9.106-3.314l1.716,20.66L37.27,47.297z
	 M59.648,21.061l-17.908,6.521l-0.321-3.863c-0.025-0.311-0.194-0.592-0.457-0.76s-0.59-0.202-0.881-0.098l-11.276,4.104
	c-0.249,0.091-0.452,0.277-0.564,0.517c-0.112,0.241-0.124,0.516-0.033,0.765l1.368,3.758l-1.718,0.627l-20.311,0.25l-1.466-4.033
	l44.238-16.097c0.865-0.312,1.811-0.219,2.59,0.252l0.958,0.584l-2.936,1.069l0.684,1.88l4.438-1.615l0.677,0.413
	c0.257,0.158,0.574,0.189,0.855,0.089c1.592-0.567,3.303,0.294,3.853,1.783c0.121,0.34,0.183,0.684,0.183,1.024
	C61.62,19.494,60.827,20.631,59.648,21.061z" id="id_101" style="fill: rgb(242, 210, 0);"></path>
<rect x="44.634" y="16.648" transform="matrix(0.9398 -0.3418 0.3418 0.9398 -3.2838 16.6616)" width="1.999" height="2" id="id_102" style="fill: rgb(0, 0, 0);"></rect>
<rect x="40.875" y="18.016" transform="matrix(0.9398 -0.3418 0.3418 0.9398 -3.9779 15.4592)" width="1.999" height="2" id="id_103"></rect>
<rect x="37.117" y="19.385" transform="matrix(0.9398 -0.3418 0.3418 0.9398 -4.6719 14.2568)" width="1.999" height="2" id="id_104" style="fill: rgb(0, 0, 0);"></rect>
<rect x="33.358" y="20.753" transform="matrix(0.9398 -0.3418 0.3418 0.9398 -5.366 13.0544)" width="1.999" height="2" id="id_105"></rect>
<rect x="29.599" y="22.121" transform="matrix(0.9398 -0.3418 0.3418 0.9398 -6.0601 11.852)" width="1.999" height="2" id="id_106"></rect>
<rect x="25.84" y="23.489" transform="matrix(0.9398 -0.3418 0.3418 0.9398 -6.754 10.6495)" width="1.999" height="2" id="id_107" style="fill: rgb(0, 0, 0);"></rect>
<rect x="22.081" y="24.857" transform="matrix(0.9398 -0.3418 0.3418 0.9398 -7.4481 9.4471)" width="1.999" height="2" id="id_108"></rect>
<rect x="18.323" y="26.225" transform="matrix(0.9396 -0.3423 0.3423 0.9396 -8.1508 8.2574)" width="2" height="2" id="id_109" style="fill: rgb(0, 0, 0);"></rect>
<rect x="14.564" y="27.593" transform="matrix(0.9396 -0.3423 0.3423 0.9396 -8.8461 7.0536)" width="2" height="2" id="id_110" style="fill: rgb(0, 0, 0);"></rect>
<path d="M19,44h6.184c0.414,1.161,1.514,2,2.816,2c1.654,0,3-1.346,3-3s-1.346-3-3-3c-1.302,0-2.402,0.839-2.816,2H19
	c-3.309,0-6,2.691-6,6s2.691,6,6,6h17v-2H19c-2.206,0-4-1.794-4-4S16.794,44,19,44z M28,42c0.552,0,1,0.449,1,1s-0.448,1-1,1
	s-1-0.449-1-1S27.448,42,28,42z" id="id_111" style="fill: rgb(242, 210, 0);"></path>
<rect x="38" y="52" width="2" height="2" id="id_112" style="fill: rgb(0, 0, 0);"></rect>
<path d="M50.5,52H42v2h8.5c1.379,0,2.5,1.122,2.5,2.5S51.879,59,50.5,59H19v2h31.5c2.481,0,4.5-2.019,4.5-4.5S52.981,52,50.5,52z" id="id_113" style="fill: rgb(237, 205, 0);"></path>
<path d="M5,57c-1.654,0-3,1.346-3,3s1.346,3,3,3c1.302,0,2.402-0.839,2.816-2H17v-2H7.816C7.402,57.839,6.302,57,5,57z M5,61
	c-0.552,0-1-0.449-1-1s0.448-1,1-1s1,0.449,1,1S5.552,61,5,61z" id="id_114" style="fill: rgb(240, 208, 0);"></path>
</svg>