<svg version="1.1" id="Layer_3" xmlns="http://www.w3.org/2000/svg" xmlns:xlink="http://www.w3.org/1999/xlink" x="0px" y="0px" viewBox="0 0 64 64" style="enable-background:new 0 0 64 64;" xml:space="preserve">
<g>
<path d="M62,4H2C1.447,4,1,4.448,1,5v54c0,0.552,0.447,1,1,1h60c0.553,0,1-0.448,1-1V5C63,4.448,62.553,4,62,4z M61,6v10H3V6H61z
		 M3,20v-2h8v2H3z M13,18h8v2h-8V18z M23,18h8v2h-8V18z M33,18h8c0,1.103-0.897,2-2,2h-6V18z M3,58V22h36c2.206,0,4-1.794,4-4h18v40
		H3z" id="id_101"></path>
<path d="M8,14c1.654,0,3-1.346,3-3S9.654,8,8,8s-3,1.346-3,3S6.346,14,8,14z M8,10c0.552,0,1,0.449,1,1s-0.448,1-1,1s-1-0.449-1-1
		S7.448,10,8,10z" id="id_102" style="fill: rgb(242, 230, 0);"></path>
<path d="M16,14c1.654,0,3-1.346,3-3s-1.346-3-3-3s-3,1.346-3,3S14.346,14,16,14z M16,10c0.552,0,1,0.449,1,1s-0.448,1-1,1
		s-1-0.449-1-1S15.448,10,16,10z" id="id_103" style="fill: rgb(240, 228, 0);"></path>
<path d="M56,14c1.654,0,3-1.346,3-3s-1.346-3-3-3s-3,1.346-3,3S54.346,14,56,14z M56,10c0.552,0,1,0.449,1,1s-0.448,1-1,1
		s-1-0.449-1-1S55.448,10,56,10z" id="id_104" style="fill: rgb(237, 225, 0);"></path>
<path d="M24,14h24c1.654,0,3-1.346,3-3s-1.346-3-3-3H24c-1.654,0-3,1.346-3,3S22.346,14,24,14z M24,10h24c0.552,0,1,0.449,1,1
		s-0.448,1-1,1H24c-0.552,0-1-0.449-1-1S23.448,10,24,10z" id="id_105" style="fill: rgb(235, 223, 0);"></path>
<path d="M47,24H17c-0.553,0-1,0.448-1,1v4c0,0.552,0.447,1,1,1h30c0.553,0,1-0.448,1-1v-4C48,24.448,47.553,24,47,24z M46,28H18v-2
		h28V28z" id="id_106" style="fill: rgb(240, 228, 0);"></path>
<path d="M47,32H17c-0.553,0-1,0.448-1,1v4c0,0.552,0.447,1,1,1h30c0.553,0,1-0.448,1-1v-4C48,32.448,47.553,32,47,32z M46,36H18v-2
		h28V36z" id="id_107" style="fill: rgb(242, 230, 0);"></path>
<path d="M47,40H17c-0.553,0-1,0.448-1,1v6c0,0.552,0.447,1,1,1h30c0.553,0,1-0.448,1-1v-6C48,40.448,47.553,40,47,40z M46,46H18v-4
		h28V46z" id="id_108" style="fill: rgb(240, 228, 0);"></path>
<path d="M34,50h-4c-1.654,0-3,1.346-3,3s1.346,3,3,3h4c1.654,0,3-1.346,3-3S35.654,50,34,50z M34,54h-4c-0.552,0-1-0.449-1-1
		s0.448-1,1-1h4c0.552,0,1,0.449,1,1S34.552,54,34,54z" id="id_109" style="fill: rgb(240, 228, 0);"></path>
</g>
</svg>